<svg width="24" height="32" viewBox="0 0 24 32" fill="none" xmlns="http://www.w3.org/2000/svg">
<path d="M23.3333 22.5918C23.3333 23.918 23.0325 25.1416 22.4309 26.2627C21.8293 27.3838 21.0022 28.3545 19.9495 29.1748C18.9104 29.9814 17.6936 30.6104 16.2991 31.0615C14.9045 31.5264 13.4143 31.7588 11.8284 31.7588C10.2424 31.7588 8.7522 31.5264 7.35767 31.0615C5.96313 30.6104 4.7395 29.9814 3.68677 29.1748C2.64771 28.3545 1.82739 27.3838 1.22583 26.2627C0.624268 25.1416 0.323486 23.918 0.323486 22.5918C0.323486 21.8262 0.426025 21.0811 0.631104 20.3564C0.836182 19.6182 1.13013 18.9277 1.51294 18.2852C1.90942 17.6426 2.3811 17.0547 2.92798 16.5215C3.47485 15.9746 4.09009 15.5098 4.77368 15.127C4.34985 14.7578 3.96704 14.334 3.62524 13.8555C3.29712 13.377 3.01001 12.8711 2.76392 12.3379C2.53149 11.8047 2.35376 11.2578 2.23071 10.6973C2.10767 10.123 2.04614 9.55566 2.04614 8.99512C2.04614 7.84668 2.29907 6.77344 2.80493 5.77539C3.32446 4.76367 4.02856 3.88184 4.91724 3.12988C5.80591 2.36426 6.84497 1.7627 8.03442 1.3252C9.22388 0.887695 10.4885 0.668945 11.8284 0.668945C13.1819 0.668945 14.4534 0.887695 15.6428 1.3252C16.8323 1.7627 17.8713 2.36426 18.76 3.12988C19.6624 3.88184 20.3665 4.76367 20.8723 5.77539C21.3918 6.77344 21.6516 7.84668 21.6516 8.99512C21.6516 9.55566 21.5833 10.123 21.4465 10.6973C21.3235 11.2578 21.1458 11.8115 20.9133 12.3584C20.6809 12.8916 20.3938 13.3975 20.052 13.876C19.7239 14.3545 19.3479 14.7852 18.9241 15.168C19.594 15.5508 20.2024 16.0088 20.7493 16.542C21.2961 17.0752 21.761 17.6631 22.1438 18.3057C22.5266 18.9482 22.8206 19.6318 23.0256 20.3564C23.2307 21.0811 23.3333 21.8262 23.3333 22.5918ZM15.8889 9.63086C15.8889 9.15234 15.7795 8.70801 15.5608 8.29785C15.3557 7.87402 15.0686 7.50488 14.6995 7.19043C14.344 6.87598 13.9202 6.62988 13.428 6.45215C12.9358 6.27441 12.4163 6.18555 11.8694 6.18555C11.3088 6.18555 10.7825 6.27441 10.2903 6.45215C9.7981 6.62988 9.36743 6.87598 8.99829 7.19043C8.64282 7.50488 8.35571 7.87402 8.13696 8.29785C7.93188 8.70801 7.82935 9.15234 7.82935 9.63086C7.82935 10.1094 7.93188 10.5537 8.13696 10.9639C8.35571 11.374 8.64282 11.7295 8.99829 12.0303C9.36743 12.3311 9.7981 12.5703 10.2903 12.748C10.7825 12.9258 11.3088 13.0146 11.8694 13.0146C12.4163 13.0146 12.9358 12.9258 13.428 12.748C13.9202 12.5703 14.344 12.3311 14.6995 12.0303C15.0686 11.7295 15.3557 11.374 15.5608 10.9639C15.7795 10.5537 15.8889 10.1094 15.8889 9.63086ZM17.4885 22.4277C17.4885 21.7715 17.3381 21.1631 17.0374 20.6025C16.7502 20.0283 16.3469 19.5293 15.8274 19.1055C15.3215 18.6816 14.72 18.3467 14.0227 18.1006C13.3391 17.8545 12.6077 17.7314 11.8284 17.7314C11.0491 17.7314 10.3176 17.8545 9.63403 18.1006C8.95044 18.3467 8.34888 18.6816 7.82935 19.1055C7.32349 19.5293 6.92017 20.0283 6.61938 20.6025C6.33228 21.1631 6.18872 21.7715 6.18872 22.4277C6.18872 23.084 6.33228 23.6855 6.61938 24.2324C6.92017 24.7793 7.32349 25.251 7.82935 25.6475C8.34888 26.0439 8.95044 26.3584 9.63403 26.5908C10.3176 26.8096 11.0491 26.9189 11.8284 26.9189C12.6077 26.9189 13.3391 26.8096 14.0227 26.5908C14.72 26.3584 15.3215 26.0439 15.8274 25.6475C16.3469 25.251 16.7502 24.7793 17.0374 24.2324C17.3381 23.6855 17.4885 23.084 17.4885 22.4277Z" fill="white" fill-opacity="0.2"/>
</svg>
