<svg width="40" height="39" viewBox="0 0 40 39" fill="none" xmlns="http://www.w3.org/2000/svg">
<path d="M39.9027 1.07056C39.9027 0.486618 39.4161 0 38.8321 0H1.07056C0.486618 0 0 0.486618 0 1.07056V9.73236V9.82968V27.3479C0 27.9319 0.486618 28.4185 1.07056 28.4185H7.0073L5.45012 37.4696C5.45012 37.7616 5.45012 38.0535 5.64477 38.2482C5.83942 38.4428 6.03406 38.6375 6.32603 38.6375H6.52068C7.0073 38.6375 7.49392 38.2482 7.59124 37.7616L9.14842 28.3212H30.8516L32.4088 37.7616C32.5061 38.2482 32.8954 38.6375 33.4793 38.6375H33.674C34.2579 38.5401 34.6472 37.9562 34.5499 37.4696L32.9927 28.4185H38.9294C39.5134 28.4185 40 27.9319 40 27.3479V9.92701V9.82968L39.9027 1.07056ZM37.8589 19.6594V26.2774H21.0219V19.6594H37.8589ZM37.8589 10.9002V17.5182H21.0219V10.9002H37.8589ZM37.8589 2.0438V8.6618H21.0219V2.0438H37.8589ZM18.8808 19.6594V26.2774H2.0438V19.6594H18.8808ZM18.8808 10.9002V17.5182H2.0438V10.9002H18.8808ZM18.8808 2.0438V8.6618H2.0438V2.0438H18.8808Z" fill="#2B2929"/>
</svg>
