<?xml version="1.0" encoding="iso-8859-1"?>
<!-- Uploaded to: SVG Repo, www.svgrepo.com, Generator: SVG Repo Mixer Tools -->
<svg version="1.1" id="Layer_1" xmlns="http://www.w3.org/2000/svg" xmlns:xlink="http://www.w3.org/1999/xlink" 
	 viewBox="0 0 512 512" xml:space="preserve">
<g>
	<path style="fill:#CFF09E;" d="M254.492,373.633v15.139c0,14.167-11.484,25.651-25.651,25.651s-25.651-11.484-25.651-25.651
		v-15.225c-43.592,4.977-75.797,22.508-75.797,43.371c0,24.736,45.267,44.787,101.108,44.787s101.108-20.051,101.108-44.787
		C329.609,396.165,297.735,378.716,254.492,373.633z"/>
	<rect x="193.041" y="14.733" style="fill:#CFF09E;" width="225.511" height="100.299"/>
</g>
<g>
	<path style="fill:#507C5C;" d="M408.397,158.765c-8.135,0-14.733,6.596-14.733,14.733v72.484c0,6.02-4.897,10.918-10.918,10.918
		h-10.917v-32.335c0-8.137-6.597-14.733-14.733-14.733s-14.733,6.596-14.733,14.733v41.083c0,6.02-4.897,10.918-10.918,10.918
		h-10.918v-52c0-8.137-6.597-14.733-14.733-14.733s-14.733,6.596-14.733,14.733v52h-21.835v-52c0-7.12-5.05-13.059-11.764-14.433
		c-0.959-0.196-1.952-0.299-2.969-0.299c-8.137,0-14.733,6.596-14.733,14.733v66.733v24.36c0,8.137,6.596,14.733,14.733,14.733
		c8.137,0,14.733-6.596,14.733-14.733v-9.628h36.568h25.651c14.697,0,27.582-7.895,34.648-19.665h16.654
		c22.267,0,40.383-18.115,40.383-40.383v-72.484C423.13,165.361,416.532,158.765,408.397,158.765z"/>
	<path style="fill:#507C5C;" d="M418.549,0H193.038c-8.137,0-14.733,6.596-14.733,14.733v100.293c0,6.537,4.261,12.07,10.154,13.997
		v231.775c-37.531,6.557-63.864,21.744-72.608,41.388H93.452c-8.137,0-14.733,6.596-14.733,14.733s6.596,14.733,14.733,14.733
		h22.424c5.367,12.02,17.374,22.528,35.164,30.406c17.352,7.686,39.227,12.499,62.728,13.925v21.284
		c0,8.137,6.596,14.733,14.733,14.733c8.137,0,14.733-6.596,14.733-14.733v-21.284c23.501-1.426,45.376-6.239,62.73-13.925
		c17.79-7.88,29.797-18.386,35.164-30.406h22.423c8.135,0,14.733-6.596,14.733-14.733s-6.597-14.733-14.733-14.733h-22.407
		c-9.691-21.702-40.892-38.01-84.93-43.186c-0.029-0.003-0.059-0.003-0.088-0.006c-0.32-0.035-0.645-0.047-0.972-0.062
		c-0.192-0.009-0.383-0.028-0.575-0.029c-0.028,0-0.056-0.004-0.084-0.004c-0.334,0-0.661,0.028-0.992,0.05
		c-0.146,0.01-0.293,0.007-0.439,0.022c-1.559,0.15-3.045,0.545-4.423,1.143c-0.037,0.016-0.072,0.035-0.109,0.052
		c-0.415,0.184-0.822,0.385-1.217,0.605c-0.118,0.066-0.231,0.141-0.348,0.211c-0.306,0.183-0.61,0.371-0.902,0.575
		c-0.149,0.105-0.292,0.217-0.438,0.327c-0.25,0.19-0.498,0.383-0.735,0.588c-0.062,0.053-0.13,0.097-0.19,0.152
		c-0.093,0.083-0.171,0.174-0.261,0.258c-0.217,0.203-0.427,0.41-0.632,0.625c-0.144,0.152-0.284,0.305-0.42,0.463
		c-0.194,0.222-0.379,0.451-0.56,0.685c-0.122,0.159-0.243,0.317-0.359,0.48c-0.181,0.255-0.349,0.519-0.514,0.787
		c-0.093,0.152-0.19,0.302-0.277,0.457c-0.169,0.301-0.324,0.608-0.473,0.922c-0.063,0.134-0.133,0.265-0.193,0.401
		c-0.153,0.349-0.287,0.709-0.415,1.071c-0.038,0.109-0.084,0.217-0.119,0.327c-0.127,0.39-0.23,0.791-0.324,1.195
		c-0.021,0.091-0.05,0.181-0.071,0.273c-0.088,0.42-0.153,0.849-0.206,1.282c-0.01,0.08-0.028,0.158-0.037,0.237
		c-0.053,0.508-0.083,1.025-0.083,1.548v15.138c0,6.02-4.897,10.918-10.918,10.918c-6.021,0-10.918-4.897-10.918-10.918v-15.225
		V129.758h200.626c8.135,0,14.733-6.596,14.733-14.733V14.733C433.282,6.596,426.686,0,418.549,0z M230.883,429.103
		c0.231-0.012,0.46-0.035,0.691-0.05c0.443-0.029,0.887-0.057,1.327-0.102c0.267-0.027,0.529-0.066,0.793-0.097
		c0.399-0.047,0.799-0.093,1.195-0.152c0.281-0.043,0.558-0.097,0.837-0.144c0.374-0.065,0.75-0.125,1.12-0.2
		c0.286-0.057,0.569-0.127,0.852-0.19c0.358-0.081,0.717-0.158,1.073-0.248c0.287-0.072,0.569-0.156,0.854-0.234
		c0.345-0.096,0.691-0.189,1.033-0.293c0.286-0.087,0.567-0.184,0.852-0.278c0.334-0.111,0.669-0.22,1-0.339
		c0.281-0.102,0.56-0.212,0.838-0.32c0.324-0.125,0.648-0.249,0.968-0.383c0.278-0.116,0.554-0.24,0.829-0.362
		c0.312-0.138,0.626-0.277,0.936-0.423c0.274-0.13,0.545-0.267,0.816-0.404c0.302-0.152,0.604-0.303,0.902-0.463
		c0.27-0.144,0.535-0.293,0.801-0.443c0.292-0.165,0.583-0.33,0.871-0.501c0.262-0.158,0.523-0.32,0.782-0.482
		c0.281-0.177,0.563-0.355,0.84-0.539c0.256-0.169,0.508-0.343,0.76-0.519c0.271-0.189,0.541-0.38,0.807-0.575
		c0.249-0.183,0.494-0.368,0.738-0.555c0.261-0.2,0.52-0.404,0.776-0.61c0.239-0.193,0.476-0.389,0.71-0.588
		c0.252-0.212,0.499-0.427,0.745-0.647c0.231-0.205,0.46-0.413,0.685-0.622c0.239-0.222,0.474-0.448,0.709-0.676
		c0.222-0.217,0.442-0.435,0.659-0.657c0.228-0.233,0.452-0.468,0.675-0.707c0.212-0.227,0.423-0.457,0.631-0.688
		c0.215-0.242,0.426-0.486,0.635-0.732c0.203-0.24,0.407-0.479,0.604-0.723c0.202-0.25,0.399-0.504,0.597-0.759
		c0.193-0.25,0.386-0.501,0.573-0.756c0.19-0.258,0.373-0.52,0.557-0.782c0.181-0.259,0.364-0.52,0.539-0.784
		c0.177-0.267,0.348-0.538,0.52-0.809c0.169-0.27,0.342-0.538,0.505-0.812c0.164-0.274,0.32-0.551,0.477-0.829
		c0.159-0.28,0.318-0.558,0.471-0.843c0.15-0.28,0.292-0.564,0.435-0.847c0.147-0.29,0.295-0.578,0.435-0.872
		c0.136-0.284,0.261-0.573,0.389-0.86c0.134-0.301,0.273-0.601,0.399-0.906c0.121-0.289,0.231-0.583,0.346-0.877
		c0.121-0.309,0.245-0.616,0.358-0.93c0.108-0.296,0.203-0.597,0.303-0.896c0.106-0.317,0.217-0.632,0.317-0.953
		c0.093-0.299,0.172-0.603,0.256-0.903c0.093-0.327,0.19-0.653,0.274-0.983c0.077-0.301,0.14-0.606,0.211-0.908
		c0.078-0.337,0.162-0.672,0.231-1.014c0.06-0.295,0.106-0.594,0.159-0.89c0.24-1.332,0.414-2.686,0.519-4.059
		c0.024-0.311,0.056-0.62,0.074-0.934c29.592,6.331,45.709,18.517,45.709,25.968c0,10.201-30.488,30.054-86.375,30.054
		s-86.374-19.854-86.374-30.054c0-7.545,16.355-19.837,46.382-26.119c0,0.007,0.001,0.015,0.001,0.021
		c0.012,0.224,0.035,0.445,0.05,0.667c0.031,0.452,0.059,0.905,0.103,1.352c0.027,0.258,0.065,0.513,0.096,0.771
		c0.049,0.408,0.094,0.816,0.156,1.22c0.041,0.276,0.096,0.545,0.143,0.819c0.065,0.38,0.128,0.763,0.203,1.14
		c0.057,0.28,0.125,0.557,0.187,0.835c0.083,0.365,0.161,0.731,0.253,1.092c0.071,0.28,0.153,0.555,0.23,0.832
		c0.099,0.354,0.193,0.709,0.301,1.058c0.085,0.277,0.18,0.549,0.271,0.824c0.113,0.345,0.225,0.689,0.349,1.028
		c0.099,0.274,0.206,0.542,0.311,0.813c0.128,0.333,0.256,0.667,0.393,0.997c0.112,0.27,0.233,0.535,0.351,0.801
		c0.143,0.324,0.286,0.648,0.438,0.966c0.125,0.264,0.258,0.523,0.387,0.782c0.158,0.315,0.315,0.629,0.482,0.94
		c0.138,0.258,0.281,0.511,0.426,0.765c0.172,0.305,0.343,0.608,0.523,0.909c0.149,0.25,0.305,0.496,0.46,0.743
		c0.186,0.296,0.373,0.592,0.567,0.884c0.161,0.242,0.326,0.48,0.492,0.719c0.199,0.286,0.399,0.57,0.605,0.85
		c0.174,0.236,0.351,0.469,0.529,0.701c0.211,0.274,0.423,0.545,0.639,0.813c0.184,0.228,0.371,0.452,0.561,0.675
		c0.224,0.264,0.449,0.526,0.679,0.784c0.194,0.218,0.392,0.433,0.591,0.647c0.234,0.252,0.471,0.502,0.713,0.748
		c0.206,0.209,0.413,0.417,0.623,0.623c0.246,0.24,0.494,0.476,0.744,0.71c0.217,0.2,0.433,0.399,0.654,0.595
		c0.255,0.227,0.514,0.451,0.775,0.672c0.225,0.192,0.452,0.38,0.682,0.566c0.267,0.215,0.536,0.427,0.809,0.636
		c0.234,0.18,0.47,0.359,0.707,0.535c0.275,0.202,0.555,0.399,0.837,0.595c0.243,0.169,0.488,0.339,0.735,0.504
		c0.286,0.189,0.575,0.373,0.865,0.554c0.252,0.158,0.504,0.317,0.76,0.47c0.295,0.177,0.595,0.346,0.894,0.514
		c0.259,0.146,0.517,0.292,0.779,0.433c0.303,0.162,0.613,0.318,0.921,0.473c0.267,0.134,0.533,0.27,0.803,0.398
		c0.312,0.149,0.629,0.289,0.947,0.429c0.273,0.121,0.544,0.243,0.819,0.358c0.326,0.136,0.654,0.261,0.984,0.389
		c0.275,0.106,0.548,0.215,0.827,0.315c0.334,0.121,0.672,0.231,1.011,0.343c0.281,0.093,0.56,0.19,0.844,0.277
		c0.343,0.106,0.691,0.199,1.039,0.296c0.284,0.078,0.566,0.162,0.852,0.234c0.355,0.09,0.716,0.168,1.075,0.249
		c0.283,0.063,0.564,0.133,0.85,0.19c0.371,0.075,0.747,0.136,1.123,0.2c0.278,0.049,0.555,0.103,0.837,0.146
		c0.396,0.06,0.799,0.105,1.199,0.153c0.264,0.031,0.524,0.071,0.79,0.097c0.446,0.044,0.897,0.072,1.348,0.103
		c0.224,0.015,0.446,0.038,0.672,0.05c0.678,0.034,1.358,0.052,2.043,0.052C229.526,429.154,230.207,429.137,230.883,429.103z
		 M403.817,100.293H207.771V29.465h196.046V100.293z"/>
</g>
</svg>