<svg width="105" height="105" viewBox="0 0 105 105" fill="none" xmlns="http://www.w3.org/2000/svg">
<path d="M103.934 41.8709C103.247 38.4992 102.215 35.1894 100.878 32.0206C99.5647 28.9138 97.9352 25.9142 96.0407 23.1119C94.1687 20.3378 92.0148 17.7272 89.6411 15.3591C87.2673 12.9853 84.6623 10.837 81.8882 8.95945C79.0859 7.06494 76.0863 5.44108 72.9795 4.12169C69.8107 2.77974 66.4953 1.75355 63.1292 1.06566C59.6728 0.360859 56.1206 0 52.5684 0C49.0162 0 45.464 0.360859 42.0077 1.06566C38.6359 1.75355 35.3261 2.78538 32.1573 4.12169C29.0506 5.43544 26.0509 7.06494 23.2486 8.95945C20.4745 10.8314 17.8639 12.9853 15.4958 15.3591C13.122 17.7328 10.9738 20.3378 9.09617 23.1119C7.20166 25.9142 5.5778 28.9138 4.25841 32.0206C2.91646 35.1894 1.89027 38.5048 1.20238 41.8709C0.497578 45.3273 0.136719 48.8795 0.136719 52.4317C0.136719 55.9839 0.497578 59.5361 1.20238 62.9925C1.89027 66.3642 2.9221 69.674 4.25841 72.8428C5.57216 75.9496 7.20166 78.9492 9.09617 81.7515C10.9681 84.5256 13.122 87.1362 15.4958 89.5043C17.8696 91.8781 20.4745 94.0263 23.2486 95.9039C26.0509 97.7985 29.0506 99.4223 32.1573 100.742C35.3261 102.084 38.6415 103.11 42.0077 103.798C45.464 104.503 49.0162 104.863 52.5684 104.863C56.1206 104.863 59.6728 104.503 63.1292 103.798C66.501 103.11 69.8107 102.078 72.9795 100.742C76.0863 99.428 79.0859 97.7985 81.8882 95.9039C84.6623 94.032 87.2729 91.8781 89.6411 89.5043C92.0148 87.1306 94.1631 84.5256 96.0407 81.7515C97.9352 78.9492 99.559 75.9496 100.878 72.8428C102.22 69.674 103.247 66.3586 103.934 62.9925C104.639 59.5361 105 55.9839 105 52.4317C105 48.8795 104.639 45.3273 103.934 41.8709ZM98.4934 52.4317C98.4934 77.7933 77.93 98.3567 52.5684 98.3567C27.2068 98.3567 6.64346 77.7933 6.64346 52.4317C6.64346 27.0701 27.2012 6.50674 52.5684 6.50674C77.9357 6.50674 98.4934 27.0701 98.4934 52.4317Z" fill="#FFBC57"/>
<path d="M43.2371 73.852C43.2202 73.852 43.1976 73.852 43.1807 73.852C42.1714 73.835 41.2298 73.3501 40.6265 72.5382L30.3026 58.6395C29.2313 57.1961 29.5301 55.1606 30.9735 54.0893C32.417 53.018 34.4524 53.3168 35.5237 54.7603L43.3273 65.2646L69.6813 32.2404C70.8034 30.8364 72.8501 30.6053 74.2541 31.7273C75.658 32.8494 75.8892 34.8961 74.7672 36.3001L45.78 72.6284C45.1598 73.4009 44.2238 73.852 43.2371 73.852Z" fill="#2B2929"/>
</svg>
