<svg width="509" height="479" viewBox="0 0 509 479" fill="none" xmlns="http://www.w3.org/2000/svg">
<g opacity="0.35" clip-path="url(#clip0_51_1454)">
<path d="M461.909 277.502C461.822 318.353 426.983 359.367 385.819 375.348C344.882 391.204 297.494 381.806 249.324 382.463C201.154 383.12 152.202 393.831 124.875 375.276C97.6756 356.942 92.2008 308.995 95.4021 267.862C98.3779 226.856 109.903 192.443 126.783 158.54C143.762 124.289 166.322 90.4214 202.319 65.9569C238.317 41.4924 287.851 26.0847 321.675 42.4697C355.627 59.0755 373.743 107.253 400.36 151.56C426.977 195.867 461.643 236.556 461.909 277.502Z" fill="#E6FEFF"/>
</g>
<defs>
<clipPath id="clip0_51_1454">
<rect width="360.248" height="364.097" fill="white" transform="matrix(0.517964 0.855403 -0.883493 0.468445 321.677 0.283447)"/>
</clipPath>
</defs>
</svg>
