<svg width="1512" height="563" viewBox="0 0 1512 563" fill="none" xmlns="http://www.w3.org/2000/svg">
<path d="M1766.04 373.599C1774.33 382.241 1772.9 393.773 1762.84 398.947C1656.31 453.853 1551.77 478.018 1448.54 482.188C1438.8 482.571 1427.01 474.926 1422.2 465.351C1386.18 394.022 1350.16 322.674 1314.14 251.335C1309.35 241.755 1311.28 233.877 1318.48 233.596C1395.4 230.491 1473.3 212.484 1552.69 171.574C1560.13 167.745 1572.9 171.419 1581.22 180.07C1642.83 244.578 1704.43 309.091 1766.04 373.599ZM1821.97 449.725C1823.83 451.694 1823.36 454.366 1820.94 455.625C1811.72 460.419 1802.53 465.008 1793.36 469.397C1790.93 470.544 1787.51 469.82 1785.74 467.816C1774.69 455.284 1763.65 442.751 1752.61 430.234C1750.85 428.248 1751.29 425.724 1753.59 424.617C1762.34 420.448 1771.1 416.073 1779.87 411.498C1782.19 410.293 1785.58 410.9 1787.42 412.855C1798.93 425.148 1810.44 437.436 1821.97 449.725ZM1735.04 489.581C1736.7 491.64 1736.11 494.093 1733.71 495.015C1724.59 498.504 1715.48 501.793 1706.39 504.906C1703.99 505.73 1700.73 504.673 1699.14 502.584C1689.23 489.601 1679.31 476.623 1669.39 463.655C1667.82 461.58 1668.38 459.264 1670.66 458.494C1679.33 455.532 1688.02 452.379 1696.72 449.046C1699 448.178 1702.23 449.128 1703.88 451.163C1714.27 463.966 1724.65 476.773 1735.04 489.581ZM1648.85 517.55C1650.34 519.675 1649.65 521.904 1647.26 522.514C1638.21 524.825 1629.17 526.951 1620.13 528.905C1617.79 529.422 1614.7 528.08 1613.28 525.954C1604.48 512.667 1595.69 499.38 1586.89 486.098C1585.5 483.997 1586.2 481.865 1588.42 481.37C1597.04 479.507 1605.66 477.469 1614.29 475.274C1616.54 474.705 1619.59 475.95 1621.07 478.045C1630.32 491.215 1639.59 504.38 1648.85 517.55ZM1563.39 534.787C1564.7 536.943 1563.84 538.978 1561.52 539.299C1552.54 540.55 1543.55 541.629 1534.59 542.562C1532.23 542.81 1529.34 541.227 1528.09 539.061C1520.4 525.612 1512.72 512.157 1505.04 498.703C1503.82 496.571 1504.6 494.624 1506.85 494.392C1515.4 493.497 1523.96 492.466 1532.52 491.278C1534.73 490.973 1537.65 492.473 1538.95 494.599C1547.1 507.995 1555.24 521.391 1563.39 534.787ZM1478.56 542.444C1479.67 544.611 1478.71 546.472 1476.35 546.554C1467.45 546.847 1458.53 547.003 1449.64 547.036C1447.29 547.04 1444.53 545.265 1443.46 543.092C1436.89 529.592 1430.3 516.079 1423.71 502.58C1422.68 500.426 1423.63 498.658 1425.86 498.656C1434.34 498.626 1442.83 498.474 1451.33 498.186C1453.57 498.105 1456.31 499.817 1457.43 501.955C1464.48 515.455 1471.51 528.949 1478.56 542.444ZM1402.31 465.488C1406.98 475.045 1402.88 482.817 1393.19 482.565C1290.41 479.907 1188.78 459.195 1087.65 431.176C1078.1 428.534 1069.32 418.984 1068.07 409.984C1058.4 342.758 1048.74 275.552 1039.07 208.325C1037.8 199.312 1042.5 193.629 1049.55 195.587C1124.92 216.459 1200.64 231.902 1277.23 233.88C1284.41 234.063 1294.01 241.862 1298.7 251.428C1333.24 322.777 1367.78 394.13 1402.31 465.488ZM1394.27 541.709C1395.23 543.883 1394.11 545.55 1391.78 545.402C1382.92 544.888 1374.06 544.248 1365.21 543.504C1362.89 543.312 1360.26 541.365 1359.39 539.2C1353.9 525.743 1348.41 512.287 1342.91 498.841C1342.05 496.705 1343.15 495.097 1345.36 495.285C1353.78 495.999 1362.23 496.604 1370.68 497.098C1372.9 497.237 1375.49 499.107 1376.44 501.237C1382.38 514.733 1388.33 528.214 1394.27 541.709ZM1310.43 533.732C1311.21 535.873 1309.97 537.385 1307.66 537.061C1298.84 535.843 1290.03 534.533 1281.21 533.13C1278.91 532.762 1276.46 530.7 1275.74 528.563C1271.34 515.238 1266.94 501.932 1262.55 488.607C1261.86 486.508 1263.07 485.041 1265.26 485.39C1273.66 486.734 1282.06 488 1290.48 489.153C1292.69 489.453 1295.1 491.447 1295.87 493.564C1300.72 506.963 1305.58 520.342 1310.43 533.732ZM1227 519.679C1227.62 521.802 1226.23 523.154 1223.95 522.688C1215.15 520.899 1206.37 519.036 1197.6 517.091C1195.29 516.581 1193 514.445 1192.47 512.335C1189.15 499.228 1185.84 486.122 1182.53 473.011C1182 470.94 1183.34 469.603 1185.53 470.1C1193.9 471.956 1202.27 473.735 1210.66 475.445C1212.81 475.883 1215.13 477.98 1215.71 480.075C1219.48 493.265 1223.25 506.474 1227 519.679ZM1143.91 500.723C1144.35 502.805 1142.82 504.031 1140.51 503.433C1131.76 501.204 1123.02 498.901 1114.29 496.56C1111.98 495.938 1109.81 493.742 1109.45 491.679C1107.22 478.831 1104.99 466.002 1102.75 453.168C1102.41 451.12 1103.89 449.928 1106.09 450.517C1114.43 452.76 1122.76 454.955 1131.1 457.08C1133.28 457.655 1135.44 459.802 1135.87 461.854C1138.55 474.811 1141.23 487.762 1143.91 500.723ZM1022.07 169.901C1022.32 171.945 1021.25 173.231 1019.68 172.762C1013.71 171.009 1007.75 169.231 1001.78 167.424C1000.21 166.941 998.764 164.919 998.586 162.903C997.439 150.381 996.283 137.859 995.132 125.332C994.944 123.317 995.992 122.066 997.451 122.501C1003.02 124.19 1008.57 125.845 1014.14 127.48C1015.6 127.915 1017 129.904 1017.26 131.933C1018.86 144.593 1020.46 157.252 1022.07 169.901ZM1061.05 478.029C1061.32 480.058 1059.64 481.179 1057.35 480.503C1048.62 477.941 1039.9 475.336 1031.18 472.701C1028.89 472 1026.87 469.783 1026.67 467.773C1025.51 455.251 1024.36 442.724 1023.21 430.202C1023.02 428.211 1024.67 427.125 1026.85 427.778C1035.17 430.29 1043.49 432.767 1051.81 435.22C1054 435.863 1055.98 438.047 1056.25 440.051C1057.85 452.716 1059.45 465.375 1061.05 478.029ZM978.333 452.75C978.424 454.737 976.647 455.775 974.35 455.036C965.633 452.279 956.908 449.483 948.189 446.682C945.926 445.937 944.055 443.733 944.031 441.775C943.961 429.589 943.882 417.403 943.816 405.222C943.791 403.293 945.568 402.264 947.725 402.961C956.039 405.639 964.349 408.293 972.67 410.937C974.846 411.633 976.689 413.808 976.762 415.766C977.281 428.089 977.814 440.417 978.333 452.75ZM895.741 426.067C895.653 428.002 893.712 428.964 891.445 428.224C882.732 425.37 874.009 422.525 865.297 419.67C863 418.921 861.289 416.759 861.448 414.867C862.454 403.028 863.455 391.193 864.456 379.358C864.615 377.476 866.497 376.505 868.683 377.211C876.995 379.928 885.303 382.65 893.625 385.367C895.772 386.074 897.483 388.235 897.392 390.136C896.84 402.118 896.298 414.09 895.741 426.067ZM813.163 399.155C812.896 401.028 810.801 401.953 808.514 401.213C799.814 398.402 791.099 395.616 782.387 392.854C780.095 392.119 778.488 390.025 778.827 388.175C780.899 376.691 782.981 365.198 785.058 353.718C785.395 351.888 787.432 350.955 789.634 351.637C797.94 354.276 806.235 356.944 814.544 359.617C816.725 360.319 818.302 362.423 818.047 364.267C816.419 375.893 814.796 387.524 813.163 399.155ZM730.518 373.162C730.093 374.983 727.851 375.889 725.562 375.198C716.836 372.554 708.119 369.948 699.389 367.392C697.104 366.716 695.626 364.703 696.138 362.91C699.292 351.748 702.451 340.59 705.594 329.438C706.101 327.66 708.314 326.725 710.488 327.368C718.802 329.811 727.124 332.294 735.449 334.81C737.637 335.468 739.066 337.49 738.626 339.297C735.932 350.577 733.228 361.867 730.518 373.162ZM698.017 294.101C695.626 301.988 685.98 306.161 676.432 303.525C575.3 275.5 473.686 254.788 370.904 252.13C361.197 251.874 358.001 245.922 363.771 238.607C406.512 184.146 449.249 129.671 491.99 75.2104C497.755 67.9005 508.278 61.9749 515.442 62.1634C592.036 64.1459 667.756 79.5788 743.123 100.451C750.171 102.404 753.982 110.446 751.616 118.318C733.75 176.915 715.878 235.518 698.017 294.101ZM647.711 349.251C647.097 351.02 644.762 351.961 642.46 351.339C633.708 348.983 624.953 346.686 616.196 344.447C613.922 343.863 612.606 341.957 613.278 340.216C617.519 329.351 621.756 318.481 625.983 307.63C626.663 305.909 629.015 304.933 631.168 305.484C639.518 307.619 647.872 309.808 656.213 312.056C658.398 312.65 659.665 314.567 659.067 316.302C655.28 327.29 651.493 338.278 647.711 349.251ZM564.719 328.6C563.941 330.322 561.437 331.304 559.145 330.804C550.362 328.863 541.585 326.991 532.795 325.206C530.487 324.731 529.322 322.969 530.188 321.256C535.509 310.639 540.826 300.027 546.133 289.414C546.983 287.726 549.435 286.691 551.646 287.138C560.023 288.843 568.398 290.627 576.775 292.474C578.941 292.956 580.094 294.766 579.327 296.468C574.456 307.174 569.585 317.889 564.719 328.6ZM481.45 312.367C480.478 314.061 477.829 315.128 475.503 314.755C466.702 313.357 457.888 312.037 449.08 310.824C446.762 310.5 445.698 308.874 446.739 307.198C453.138 296.776 459.537 286.343 465.941 275.906C466.961 274.25 469.608 273.12 471.814 273.43C480.229 274.584 488.625 275.83 497.013 277.178C499.223 277.523 500.235 279.208 499.308 280.868C493.35 291.369 487.398 301.875 481.45 312.367ZM397.8 301.725C396.672 303.392 393.852 304.587 391.524 304.385C382.682 303.637 373.836 302.996 364.97 302.478C362.624 302.349 361.711 300.888 362.927 299.22C370.417 288.894 377.907 278.568 385.412 268.238C386.592 266.604 389.4 265.346 391.624 265.471C400.065 265.969 408.506 266.579 416.939 267.293C419.166 267.471 420.047 269.001 418.93 270.648C411.888 281.009 404.851 291.364 397.8 301.725ZM511.767 46.8723C510.459 48.5264 508.107 49.878 506.498 49.8889C500.412 49.9048 494.317 50.0135 488.213 50.2152C486.617 50.2797 486.45 48.9674 487.827 47.3128C496.422 36.9956 505.021 26.6734 513.61 16.3611C514.988 14.6967 517.331 13.3158 518.8 13.2623C524.492 13.0745 530.172 12.965 535.852 12.9482C537.333 12.9483 537.49 14.2802 536.171 15.9441C528.047 26.2469 519.907 36.5547 511.767 46.8723ZM313.696 297.833C312.382 299.492 309.444 300.84 307.092 300.848C298.195 300.877 289.283 301.033 280.354 301.346C278.044 301.417 277.25 300.14 278.637 298.476C287.231 288.159 295.821 277.846 304.42 267.524C305.772 265.884 308.743 264.458 310.946 264.378C319.452 264.099 327.944 263.947 336.441 263.913C338.666 263.905 339.392 265.276 338.115 266.9C329.97 277.213 321.835 287.525 313.696 297.833ZM1.24767 335.734C-8.81628 340.923 -9.35376 338.74 0.0469346 330.485C69.8463 269.18 139.645 207.884 209.46 146.573C218.869 138.338 232.556 128.293 239.984 124.469C319.376 83.5494 397.267 65.5519 474.204 62.4416C481.401 62.156 482.446 68.0069 476.539 75.3134C432.321 129.789 388.108 184.259 343.886 238.739C337.979 246.055 325.294 252.114 315.555 252.508C212.322 256.673 107.781 280.837 1.24767 335.734ZM229.096 301.859C227.611 303.534 224.484 305.074 222.147 305.322C213.189 306.255 204.215 307.335 195.229 308.585C192.87 308.902 192.234 307.819 193.802 306.138C203.501 295.717 213.204 285.301 222.902 274.88C224.45 273.229 227.532 271.601 229.778 271.281C238.341 270.103 246.903 269.066 255.449 268.176C257.668 267.949 258.285 269.135 256.815 270.776C247.579 281.134 238.338 291.496 229.096 301.859ZM143.91 314.971C142.257 316.667 138.944 318.453 136.572 318.97C127.553 320.929 118.522 323.059 109.479 325.361C107.103 325.975 106.567 325.077 108.313 323.365C119.125 312.728 129.942 302.086 140.754 291.439C142.469 289.757 145.737 287.874 148.014 287.29C156.633 285.09 165.244 283.066 173.849 281.199C176.108 280.708 176.596 281.699 174.954 283.376C164.606 293.911 154.258 304.436 143.91 314.971ZM58.0552 338.326C56.2101 340.078 52.7488 342.149 50.35 342.964C41.2547 346.077 32.1522 349.366 23.0317 352.86C20.6192 353.772 20.2357 353.102 22.165 351.325C34.0914 340.32 46.0328 329.311 57.964 318.311C59.853 316.563 63.2893 314.385 65.5879 313.508C74.2863 310.179 82.9622 307.041 91.6359 304.084C93.9063 303.3 94.2651 304.097 92.4556 305.815C80.9904 316.654 69.52 327.497 58.0552 338.326ZM-28.5785 373.114C-30.6122 374.936 -34.1937 377.321 -36.616 378.478C-45.8116 382.862 -55.0057 387.451 -64.2284 392.264C-66.6151 393.509 -66.8751 393.047 -64.7714 391.185C-51.7094 379.662 -38.6377 368.138 -25.5656 356.605C-23.4928 354.782 -19.8865 352.27 -17.6093 351.076C-8.83111 346.496 -0.046262 342.116 8.71068 337.942C11.0086 336.84 11.2133 337.458 9.21523 339.246C-3.39246 350.535 -15.9806 361.825 -28.5785 373.114ZM292.551 76.0371C294.66 74.1701 297.601 72.0214 299.129 71.2249C305.006 68.1632 310.873 65.2336 316.724 62.4408C318.254 61.7176 317.872 62.5858 315.843 64.4032C303.26 75.6876 290.657 86.982 278.059 98.2715C276.025 100.094 273.062 102.189 271.402 102.982C265.112 105.984 258.822 109.118 252.52 112.404C250.877 113.265 251.251 112.47 253.35 110.613C266.417 99.0844 279.484 87.5559 292.551 76.0371ZM348.515 50.3766C350.429 48.6043 353.214 46.7014 354.753 46.1099C360.567 43.8792 366.366 41.7855 372.17 39.7991C373.701 39.281 373.456 40.27 371.616 42.0074C360.146 52.8511 348.681 63.68 337.211 74.5237C335.362 76.2611 332.524 78.1402 330.889 78.6935C324.673 80.8158 318.438 83.0702 312.202 85.4564C310.568 86.0928 310.782 85.1627 312.705 83.4001C324.642 72.3857 336.573 61.3861 348.515 50.3766ZM403.964 32.3799C405.714 30.663 408.354 28.9666 409.86 28.5855C415.629 27.1123 421.389 25.7516 427.133 24.5082C428.647 24.1856 428.544 25.2807 426.882 26.9773C416.539 37.507 406.181 48.0418 395.838 58.5716C394.156 60.2683 391.484 61.9309 389.861 62.2838C383.692 63.6193 377.514 65.0769 371.33 66.6518C369.7 67.0684 369.801 66.0123 371.537 64.3004C382.354 53.6585 393.156 43.0217 403.964 32.3799ZM458.997 21.284C460.56 19.6177 463.017 18.0892 464.526 17.8839C470.253 17.0901 475.981 16.389 481.694 15.8054C483.167 15.6444 483.205 16.8749 481.725 18.5355C472.484 28.8981 463.242 39.2607 454.001 49.6233C452.506 51.2889 449.998 52.774 448.397 52.9461C442.271 53.5826 436.131 54.3267 429.987 55.1686C428.36 55.3946 428.349 54.2127 429.902 52.5368C439.605 42.1208 449.303 31.7097 458.997 21.284ZM567.869 16.8341C569.07 15.1714 571.253 13.8996 572.745 13.9924C578.387 14.3228 584.031 14.7265 589.677 15.2034C591.152 15.3403 591.456 16.7831 590.323 18.4451C583.281 28.8057 576.24 39.1662 569.198 49.5268C568.065 51.1888 565.84 52.4367 564.246 52.3107C558.201 51.7888 552.143 51.3551 546.091 50.9994C544.501 50.9075 544.168 49.4846 545.384 47.8168C552.874 37.4909 560.369 27.1699 567.869 16.8341ZM621.822 21.9698C622.853 20.2843 624.89 19.1067 626.368 19.3071C631.987 20.0822 637.589 20.921 643.208 21.8183C644.685 22.048 645.106 23.6117 644.158 25.3013C638.211 35.7927 632.253 46.294 626.311 56.7903C625.343 58.4898 623.287 59.648 621.689 59.3951C615.681 58.4333 609.646 57.5353 603.619 56.7056C602.019 56.4917 601.578 54.9379 602.604 53.2672C609.008 42.8299 615.412 32.4023 621.822 21.9698ZM675.538 31.0153C676.389 29.3072 678.263 28.1751 679.737 28.4732C685.337 29.6149 690.935 30.8054 696.525 32.0497C697.978 32.3773 698.557 34.0225 697.764 35.7496C692.898 46.46 688.037 57.1654 683.171 67.8758C682.393 69.5979 680.461 70.711 678.906 70.3697C672.903 69.0366 666.894 67.7574 660.882 66.5367C659.291 66.2203 658.727 64.57 659.588 62.8618C664.905 52.2495 670.212 41.6374 675.538 31.0153ZM729.03 43.2183C729.706 41.4728 731.462 40.3712 732.893 40.7479C738.477 42.1779 744.063 43.642 749.644 45.1306C751.109 45.5314 751.811 47.2633 751.182 49.0376C747.405 60.0158 743.614 70.9988 739.837 81.977C739.223 83.7462 737.472 84.8429 735.891 84.4139C729.91 82.7974 723.927 81.2297 717.927 79.7061C716.374 79.3062 715.648 77.5598 716.335 75.8045C720.566 64.9391 724.798 54.0836 729.03 43.2183ZM782.361 57.8308C782.873 56.0381 784.467 54.943 785.94 55.373C791.5 57.0132 797.064 58.6681 802.618 60.3523C804.086 60.7873 804.931 62.6253 804.491 64.4319C801.782 75.7268 799.088 87.0068 796.378 98.3017C795.943 100.113 794.3 101.218 792.731 100.741C786.772 98.9333 780.802 97.1457 774.826 95.4021C773.251 94.9487 772.392 93.0962 772.904 91.3035C776.053 80.146 779.212 68.9884 782.361 57.8308ZM835.585 74.0953C835.924 72.2555 837.391 71.1323 838.848 71.6064C844.404 73.3639 849.958 75.141 855.507 76.9327C856.969 77.4019 857.944 79.2924 857.692 81.1607C856.065 92.7868 854.432 104.418 852.808 116.049C852.547 117.927 851.05 119.031 849.477 118.529C843.523 116.614 837.563 114.704 831.607 112.809C830.039 112.311 829.021 110.407 829.365 108.552C831.431 97.0731 833.513 85.5793 835.585 74.0953ZM888.778 91.2736C888.943 89.367 890.226 88.2261 891.697 88.705C897.255 90.5162 902.813 92.3372 908.376 94.1532C909.808 94.6227 910.937 96.5702 910.85 98.4858C910.293 110.473 909.74 122.454 909.193 134.431C909.101 136.362 907.749 137.523 906.195 137.011C900.242 135.057 894.269 133.113 888.312 131.154C886.749 130.642 885.616 128.68 885.781 126.773C886.776 114.943 887.777 103.108 888.778 91.2736ZM1009.09 183.891C1016.13 186 1022.78 194.961 1023.92 203.932C1032.12 270.743 1040.35 337.543 1048.57 404.334C1049.7 413.31 1042.88 418.335 1033.34 415.479C932.366 385.182 831.723 349.509 730.731 319.217C721.212 316.355 715.282 307.666 717.522 299.755C733.934 240.738 750.351 181.725 766.768 122.712C769.003 114.797 776.537 110.043 783.584 112.157C858.849 134.726 933.834 161.312 1009.09 183.891ZM941.936 108.599C941.913 106.63 943.099 105.451 944.552 105.911C950.106 107.708 955.66 109.485 961.23 111.247C962.682 111.716 963.923 113.677 964.014 115.664C964.532 127.997 965.061 140.32 965.59 152.643C965.661 154.63 964.468 155.853 962.91 155.346C956.945 153.451 950.98 151.546 945.016 149.621C943.467 149.124 942.174 147.119 942.166 145.156C942.091 132.965 942.011 120.779 941.936 108.599ZM1048.42 140.712C1048.05 138.655 1048.97 137.322 1050.42 137.713C1056.01 139.211 1061.57 140.685 1067.15 142.111C1068.62 142.467 1070.16 144.455 1070.6 146.536C1073.27 159.497 1075.96 172.444 1078.64 185.395C1079.07 187.486 1078.13 188.858 1076.56 188.459C1070.58 186.92 1064.6 185.357 1058.62 183.746C1057.04 183.327 1055.46 181.286 1055.11 179.223C1052.88 166.389 1050.65 153.551 1048.42 140.712ZM1101.86 154.015C1101.32 151.905 1102.08 150.481 1103.54 150.804C1109.14 152.043 1114.74 153.234 1120.34 154.37C1121.79 154.664 1123.49 156.615 1124.08 158.749C1127.85 171.939 1131.61 185.138 1135.38 198.343C1135.98 200.467 1135.19 201.945 1133.63 201.628C1127.62 200.402 1121.61 199.118 1115.62 197.79C1114.03 197.444 1112.34 195.434 1111.8 193.329C1108.49 180.218 1105.17 167.121 1101.86 154.015ZM1155.46 164.458C1154.75 162.326 1155.39 160.8 1156.85 161.03C1162.46 161.928 1168.08 162.771 1173.71 163.541C1175.18 163.742 1177 165.638 1177.78 167.79C1182.63 181.174 1187.47 194.554 1192.34 207.943C1193.12 210.089 1192.47 211.668 1190.9 211.459C1184.86 210.624 1178.83 209.726 1172.79 208.765C1171.24 208.516 1169.37 206.557 1168.66 204.41C1164.25 191.094 1159.86 177.774 1155.46 164.458ZM1209.3 171.319C1208.42 169.149 1208.93 167.518 1210.41 167.645C1216.04 168.112 1221.69 168.526 1227.33 168.861C1228.81 168.949 1230.81 170.751 1231.76 172.915C1237.7 186.411 1243.65 199.892 1249.59 213.383C1250.55 215.557 1250.03 217.257 1248.43 217.165C1242.36 216.809 1236.32 216.376 1230.26 215.854C1228.67 215.723 1226.66 213.838 1225.77 211.673C1220.28 198.217 1214.79 184.761 1209.3 171.319ZM1263.43 173.815C1262.37 171.643 1262.73 169.9 1264.22 169.89C1269.89 169.874 1275.57 169.779 1281.26 169.581C1282.74 169.533 1284.89 171.226 1286.01 173.403C1293.06 186.898 1300.1 200.397 1307.14 213.887C1308.28 216.059 1307.9 217.885 1306.27 217.94C1300.19 218.141 1294.1 218.255 1288.01 218.276C1286.41 218.282 1284.25 216.505 1283.18 214.328C1276.6 200.819 1270.01 187.32 1263.43 173.815ZM1317.9 171.219C1316.67 169.048 1316.89 167.194 1318.37 167.048C1324.09 166.445 1329.82 165.754 1335.54 164.96C1337.03 164.76 1339.31 166.315 1340.62 168.466C1348.77 181.862 1356.92 195.267 1365.07 208.663C1366.38 210.819 1366.13 212.765 1364.53 212.986C1358.38 213.838 1352.26 214.582 1346.12 215.213C1344.51 215.391 1342.2 213.748 1340.96 211.581C1333.28 198.122 1325.59 184.683 1317.9 171.219ZM1372.74 162.782C1371.31 160.642 1371.42 158.673 1372.91 158.341C1378.68 157.092 1384.44 155.731 1390.21 154.263C1391.71 153.877 1394.14 155.26 1395.64 157.38C1404.89 170.559 1414.16 183.725 1423.42 196.895C1424.91 199.019 1424.82 201.086 1423.18 201.498C1416.99 203.083 1410.81 204.536 1404.63 205.876C1403.02 206.234 1400.54 204.768 1399.13 202.628C1390.33 189.341 1381.54 176.059 1372.74 162.782ZM1428 147.742C1426.4 145.653 1426.37 143.558 1427.9 143.045C1433.7 141.058 1439.51 138.95 1445.32 136.739C1446.86 136.142 1449.44 137.313 1451.1 139.373C1461.5 152.18 1471.89 164.987 1482.26 177.8C1483.93 179.864 1483.95 182.067 1482.31 182.689C1476.08 185.07 1469.84 187.334 1463.63 189.461C1461.97 190.02 1459.36 188.766 1457.76 186.676C1447.84 173.698 1437.92 160.725 1428 147.742ZM1483.75 125.356C1481.97 123.332 1481.8 121.136 1483.34 120.403C1489.2 117.615 1495.06 114.685 1500.93 111.619C1502.46 110.817 1505.21 111.728 1507.07 113.717C1518.59 125.996 1530.11 138.299 1541.62 150.587C1543.47 152.562 1543.64 154.88 1541.97 155.756C1535.68 159.037 1529.39 162.171 1523.12 165.168C1521.46 165.951 1518.67 164.948 1516.88 162.929C1505.85 150.401 1494.8 137.884 1483.75 125.356ZM295.313 68.1657C159.988 186.378 24.6478 304.606 -110.677 422.818C574.294 30.584 1180.59 845.291 1865.56 453.047C1745.89 330.932 1626.24 208.817 1506.56 86.7021C1086.75 327.104 715.137 -172.241 295.313 68.1657Z" fill="url(#paint0_linear_28_524)"/>
<defs>
<linearGradient id="paint0_linear_28_524" x1="892.498" y1="-550.187" x2="1865.56" y2="453.047" gradientUnits="userSpaceOnUse">
<stop stop-color="#FF0000"/>
<stop offset="0.489" stop-color="#42FF00"/>
<stop offset="1" stop-color="#2400FF"/>
</linearGradient>
</defs>
</svg>
