<svg width="20" height="20" viewBox="0 0 20 20" fill="none" xmlns="http://www.w3.org/2000/svg">
<path d="M18.9997 1.47516H13.877C13.3247 1.47516 12.877 1.92287 12.877 2.47516V7.59793C12.877 8.15021 13.3247 8.59793 13.877 8.59793H18.9997C19.552 8.59793 19.9997 8.15021 19.9997 7.59793V2.47516C19.9997 1.92287 19.552 1.47516 18.9997 1.47516Z" fill="white"/>
<path d="M9.36607 4.32945L5.74373 0.707107C5.3532 0.316582 4.72004 0.316582 4.32951 0.707106L0.70717 4.32945C0.316646 4.71998 0.316645 5.35314 0.707169 5.74366L4.32951 9.36601C4.72004 9.75653 5.3532 9.75653 5.74373 9.36601L9.36607 5.74366C9.7566 5.35314 9.7566 4.71998 9.36607 4.32945Z" fill="white"/>
<path d="M7.59787 12.8772H2.4751C1.92281 12.8772 1.4751 13.3249 1.4751 13.8772V19C1.4751 19.5523 1.92281 20 2.4751 20H7.59787C8.15015 20 8.59787 19.5523 8.59787 19V13.8772C8.59787 13.3249 8.15015 12.8772 7.59787 12.8772Z" fill="white"/>
<path d="M18.9997 12.8772H13.877C13.3247 12.8772 12.877 13.3249 12.877 13.8772V19C12.877 19.5523 13.3247 20 13.877 20H18.9997C19.552 20 19.9997 19.5523 19.9997 19V13.8772C19.9997 13.3249 19.552 12.8772 18.9997 12.8772Z" fill="white"/>
</svg>
