<?xml version="1.0" standalone="no"?>
<!DOCTYPE svg PUBLIC "-//W3C//DTD SVG 20010904//EN"
 "http://www.w3.org/TR/2001/REC-SVG-20010904/DTD/svg10.dtd">
<svg version="1.0" xmlns="http://www.w3.org/2000/svg"
 width="1184.000000pt" height="1184.000000pt" viewBox="0 0 1184.000000 1184.000000"
 preserveAspectRatio="xMidYMid meet">
<metadata>
Created by potrace 1.14, written by Peter Selinger 2001-2017
</metadata>
<g transform="translate(0.000000,1184.000000) scale(0.100000,-0.100000)"
fill="#000000" stroke="none">
<path d="M1640 9257 c-33 -18 -51 -36 -70 -73 l-26 -49 1 -1300 0 -1300 23
-40 c13 -22 38 -50 55 -62 28 -19 117 -39 155 -35 16 2 30 3 130 2 45 0 86 1
90 1 4 1 12 0 17 -1 6 -1 30 -1 55 0 25 0 56 0 70 0 14 -1 32 -1 40 -1 45 2
114 0 121 -4 4 -3 10 -1 14 4 3 6 11 8 18 5 19 -7 127 -10 127 -3 0 3 19 3 43
0 23 -4 66 -4 95 -1 29 4 55 4 57 1 3 -2 26 -3 53 -2 26 1 58 1 72 1 14 -1 32
-1 40 -1 45 2 114 0 121 -4 4 -3 10 -1 14 4 3 6 11 8 18 5 19 -7 127 -10 127
-3 0 3 19 3 43 0 23 -4 66 -4 95 -1 29 4 55 4 57 1 3 -2 26 -3 53 -2 26 1 58
1 72 1 14 -1 32 -1 40 -1 45 2 114 0 121 -4 4 -3 10 -1 14 4 3 6 11 8 18 5 19
-7 127 -10 127 -3 0 3 19 3 43 0 23 -4 66 -4 95 -1 29 4 55 4 57 1 6 -6 82 -4
120 4 75 14 132 72 143 144 8 55 7 2551 -1 2593 -10 46 -48 93 -98 118 -37 19
-69 20 -1226 20 l-1188 0 -45 -23z"/>
<path d="M4700 9264 c-45 -20 -68 -41 -91 -86 -18 -35 -19 -84 -19 -1331 0
-1172 1 -1298 16 -1333 32 -77 89 -110 198 -113 28 -1 53 -4 57 -7 4 -2 10 0
14 5 3 6 11 8 18 5 19 -7 127 -10 127 -3 0 3 20 3 45 -1 25 -4 48 -3 51 2 3 4
10 6 15 2 12 -7 218 -9 225 -2 2 3 19 2 37 -1 18 -4 49 -4 70 0 20 3 37 4 37
0 0 -3 21 -5 47 -3 57 3 44 3 169 1 56 -1 106 1 112 5 6 3 13 2 16 -3 3 -5 21
-5 41 -1 19 4 37 4 40 0 3 -4 21 -4 40 0 19 4 37 4 40 0 3 -4 21 -4 40 0 20 4
48 5 62 1 15 -4 46 -4 70 -1 24 4 43 4 43 1 0 -5 86 -6 100 0 3 1 9 1 15 -1
12 -2 207 -2 220 0 6 2 15 1 20 0 25 -5 204 -2 213 4 6 3 13 2 16 -3 3 -5 21
-5 41 -1 19 4 37 4 40 0 3 -4 21 -4 40 0 19 4 37 4 40 -1 3 -4 11 -6 18 -3 7
2 41 6 77 7 93 5 146 38 175 109 13 34 15 182 15 1332 0 1248 -1 1294 -19
1332 -23 48 -45 68 -94 89 -32 13 -177 15 -1219 15 -1031 -1 -1187 -3 -1218
-16z"/>
<path d="M7761 9273 c-37 -7 -106 -83 -117 -129 -6 -23 -9 -542 -9 -1319 1
-1252 1 -1281 20 -1319 28 -56 80 -94 140 -102 28 -3 51 -7 53 -9 2 -1 19 1
38 5 19 4 36 4 39 0 3 -4 21 -4 40 0 20 4 48 5 62 1 15 -4 46 -4 70 -1 24 4
43 4 43 1 0 -5 86 -6 100 0 3 1 9 1 15 -1 12 -2 207 -2 220 0 6 2 15 1 20 0
25 -5 204 -2 213 4 6 3 13 2 16 -3 3 -5 21 -5 41 -1 19 4 37 4 40 0 3 -4 21
-4 40 0 19 4 37 4 40 0 3 -4 22 -4 42 0 20 5 41 6 45 4 11 -7 217 -8 224 -2 2
3 19 2 37 -1 18 -4 49 -4 70 0 20 3 37 4 37 0 0 -3 21 -5 47 -3 57 3 44 3 169
1 56 -1 106 1 112 5 6 3 13 2 16 -3 3 -5 21 -5 41 -1 19 4 37 4 40 0 3 -4 21
-4 40 0 19 4 37 4 40 0 3 -4 21 -4 40 0 20 4 48 5 63 1 15 -4 44 -4 65 -1 20
4 40 3 43 -1 3 -5 8 -7 12 -5 4 2 31 7 61 10 84 9 144 59 159 130 4 23 8 619
7 1326 -1 1088 -3 1290 -15 1315 -20 41 -68 83 -110 95 -34 10 -2357 13 -2409
3z"/>
<path d="M145 7163 c-11 -2 -26 -6 -33 -8 -7 -3 -15 -4 -18 -4 -12 1 -66 -64
-79 -94 -12 -27 -14 -379 -15 -2182 0 -1525 3 -2161 11 -2189 14 -49 66 -102
116 -115 24 -7 196 -11 461 -11 404 0 424 1 465 20 49 23 79 58 95 110 7 24
10 277 9 788 -1 495 1 752 8 752 7 0 7 3 0 8 -6 4 -10 69 -10 157 0 88 4 153
10 157 7 5 7 8 0 8 -6 0 -10 58 -10 155 0 97 4 155 10 155 7 0 7 3 0 8 -6 4
-10 69 -10 157 0 88 4 153 10 157 7 5 7 8 0 8 -7 0 -10 313 -10 918 l0 917
-29 42 c-27 40 -64 72 -96 82 -19 5 -858 9 -885 4z"/>
<path d="M10809 7156 c-47 -15 -82 -44 -105 -86 -18 -34 -19 -99 -20 -2195 -1
-1427 2 -2170 9 -2190 15 -43 54 -87 96 -107 32 -16 82 -17 484 -17 274 0 447
4 447 10 0 5 5 9 11 9 24 0 72 45 90 84 18 40 19 117 19 2199 0 2100 -1 2159
-19 2195 -24 46 -56 76 -102 95 -30 12 -107 15 -455 15 -287 0 -430 -4 -455
-12z"/>
<path d="M1674 6006 c-48 -11 -118 -79 -123 -122 -2 -16 -4 -308 -5 -649 0
-671 -3 -640 53 -703 21 -25 134 -66 139 -52 2 5 9 7 15 4 18 -6 117 -10 117
-4 0 7 110 4 117 -3 3 -3 15 -2 28 3 13 5 26 6 29 3 7 -7 375 -7 382 0 3 3 17
2 30 -3 14 -6 26 -6 29 0 3 5 15 6 27 1 11 -4 40 -4 65 -1 24 4 46 3 49 -1 2
-5 15 -4 28 1 13 5 27 6 30 3 7 -7 375 -7 382 0 3 3 17 2 30 -3 14 -6 26 -6
29 0 3 5 16 6 28 2 24 -9 56 -8 81 1 8 3 18 2 21 -3 3 -5 18 -5 34 0 16 4 32
6 35 3 7 -7 146 -10 146 -3 0 7 96 4 115 -4 8 -3 17 -1 20 4 3 6 15 6 30 0 15
-6 27 -6 30 0 3 6 15 6 30 0 15 -6 27 -6 30 0 3 6 15 6 30 0 15 -6 27 -6 30 0
3 6 15 6 30 0 15 -6 27 -6 30 0 3 6 15 6 30 0 15 -6 27 -6 30 0 3 6 15 6 30 0
15 -6 27 -6 30 0 3 6 15 6 30 0 15 -6 27 -6 30 0 3 6 15 6 30 0 15 -6 27 -6
30 0 3 5 16 6 28 2 24 -9 56 -8 81 1 8 3 18 2 21 -3 3 -5 18 -5 34 0 16 4 32
6 35 3 7 -7 146 -10 146 -3 0 7 110 4 117 -3 3 -3 15 -2 28 3 13 5 26 6 29 3
7 -7 375 -7 382 0 3 3 17 2 30 -3 14 -6 26 -6 29 0 3 5 15 6 27 1 12 -4 36 -5
54 -1 18 4 38 4 45 -1 7 -4 20 -4 29 1 9 5 22 5 30 0 8 -5 21 -5 31 0 9 5 19
7 22 4 8 -8 213 -8 226 1 6 3 11 2 11 -4 0 -6 11 -6 30 -1 17 5 30 5 30 0 0
-5 13 -5 30 0 17 5 32 5 35 0 3 -5 16 -5 30 0 13 5 27 6 29 1 3 -4 26 -5 50
-1 25 4 51 3 58 -1 6 -4 19 -4 28 1 9 5 22 5 30 0 8 -5 21 -5 31 0 9 5 19 7
22 4 8 -8 213 -8 226 1 6 3 11 2 11 -4 0 -6 11 -6 30 -1 17 5 30 5 30 0 0 -5
13 -5 30 0 17 5 32 5 35 0 3 -5 16 -5 30 0 13 5 27 6 29 1 3 -4 26 -5 50 -1
25 4 51 3 58 -1 6 -4 19 -4 28 1 9 5 22 5 30 0 8 -5 21 -5 31 0 9 5 19 7 22 4
8 -8 213 -8 226 1 6 3 11 2 11 -4 0 -6 11 -6 30 -1 17 5 30 5 30 0 0 -5 13 -5
30 0 17 5 32 5 35 0 3 -5 16 -5 30 0 13 5 27 6 29 1 3 -4 26 -5 50 -1 25 4 51
3 58 -1 6 -4 19 -4 28 1 9 5 22 5 30 0 8 -5 21 -5 31 0 9 5 19 7 22 4 8 -8
213 -8 226 1 6 3 11 2 11 -4 0 -6 11 -6 30 -1 17 5 30 5 30 0 0 -5 13 -5 30 0
17 5 32 5 35 0 3 -5 16 -5 30 0 13 5 26 6 29 2 5 -9 81 -6 95 3 5 3 12 1 15
-4 4 -6 18 -6 35 -1 16 4 32 6 35 3 7 -7 146 -10 146 -3 0 7 96 4 115 -4 8 -3
17 -1 20 4 3 6 15 6 30 0 15 -6 27 -6 30 0 3 6 15 6 30 0 15 -6 27 -6 30 0 3
6 15 6 30 0 15 -6 27 -6 30 0 3 6 15 6 30 0 15 -6 27 -6 30 0 3 6 15 6 30 0
15 -6 27 -6 30 0 3 6 15 6 30 0 15 -6 27 -6 30 0 3 6 15 6 30 0 15 -6 27 -6
30 0 3 6 15 6 30 0 15 -6 27 -6 30 0 3 5 16 6 28 2 24 -9 56 -8 81 1 8 3 18 2
21 -3 3 -5 18 -5 34 0 16 4 32 6 35 3 7 -7 146 -10 146 -3 0 7 110 4 117 -3 3
-3 15 -2 28 3 13 5 26 6 29 3 7 -7 375 -7 382 0 3 3 17 2 30 -3 14 -6 26 -6
29 0 3 5 16 6 28 2 24 -9 56 -8 81 1 8 3 18 2 21 -3 3 -5 18 -5 34 0 16 4 32
6 35 3 7 -7 146 -10 146 -3 0 7 96 4 115 -4 8 -3 17 -1 20 4 3 6 15 6 30 0 15
-6 27 -6 30 0 3 6 15 6 30 0 17 -6 25 -6 25 1 0 6 4 8 8 5 5 -3 25 -1 44 4 50
14 105 73 116 124 4 22 8 318 7 656 -1 547 -2 618 -17 645 -17 32 -47 61 -88
85 -22 12 -558 14 -4251 15 -2434 0 -4242 -3 -4265 -9z"/>
<path d="M1695 4092 c-3 -3 -29 -9 -47 -11 -25 -3 -79 -68 -91 -109 -20 -70
-17 -1263 4 -1307 19 -41 67 -83 109 -95 51 -14 1201 -13 1250 1 59 18 105 66
119 124 2 11 5 71 5 132 1 62 3 114 6 114 22 5 5724 2 5733 -3 6 -4 11 -51 12
-120 1 -126 12 -167 58 -209 16 -15 46 -31 66 -38 50 -14 1199 -16 1252 -1 50
14 106 73 117 124 4 22 8 318 7 656 -1 547 -2 618 -17 645 -17 32 -47 61 -88
85 -22 13 -551 14 -4258 15 -2328 0 -4235 -1 -4237 -3z"/>
</g>
</svg>
