<svg width="25.000000" height="25.000000" viewBox="0 0 25 25" fill="none" xmlns="http://www.w3.org/2000/svg" xmlns:xlink="http://www.w3.org/1999/xlink">
	<desc>
			Created with Pixso.
	</desc>
	<defs/>
	<path id="Vector" d="M14.99 20.01C15.32 20.01 15.64 19.88 15.88 19.65C16.11 19.41 16.25 19.1 16.25 18.77L16.25 16.27C16.25 15.94 16.11 15.63 15.88 15.39C15.64 15.16 15.32 15.03 14.99 15.03C14.66 15.03 14.34 15.16 14.1 15.39C13.87 15.63 13.74 15.94 13.74 16.27L13.74 18.77C13.74 19.1 13.87 19.41 14.1 19.65C14.34 19.88 14.66 20.01 14.99 20.01ZM9.97 20.01C10.31 20.01 10.63 19.88 10.86 19.65C11.1 19.41 11.23 19.1 11.23 18.77L11.23 16.27C11.23 15.94 11.1 15.63 10.86 15.39C10.63 15.16 10.31 15.03 9.97 15.03C9.64 15.03 9.32 15.16 9.09 15.39C8.85 15.63 8.72 15.94 8.72 16.27L8.72 18.77C8.72 19.1 8.85 19.41 9.09 19.65C9.32 19.88 9.64 20.01 9.97 20.01ZM21.26 5.06L19.53 5.06L17.36 0.76C17.3 0.6 17.2 0.46 17.07 0.34C16.95 0.22 16.8 0.13 16.64 0.07C16.48 0.01 16.31 -0.01 16.13 0C15.96 0.01 15.79 0.05 15.64 0.13C15.48 0.21 15.35 0.31 15.24 0.45C15.13 0.58 15.05 0.73 15 0.9C14.95 1.06 14.94 1.23 14.96 1.4C14.98 1.57 15.04 1.74 15.13 1.88L16.72 5.06L8.24 5.06L9.84 1.88C9.96 1.59 9.96 1.27 9.85 0.97C9.74 0.68 9.53 0.43 9.24 0.29C8.96 0.15 8.63 0.12 8.33 0.21C8.03 0.29 7.77 0.49 7.6 0.76L5.43 5.06L3.7 5.06C2.81 5.07 1.96 5.4 1.29 5.98C0.62 6.55 0.18 7.35 0.04 8.22C-0.1 9.09 0.08 9.98 0.54 10.73C1 11.48 1.71 12.05 2.55 12.34L3.48 21.63C3.57 22.56 4.01 23.41 4.7 24.04C5.4 24.66 6.3 25 7.24 24.99L17.75 24.99C18.69 25 19.59 24.66 20.29 24.04C20.98 23.41 21.42 22.56 21.52 21.63L22.44 12.34C23.29 12.05 24 11.48 24.46 10.72C24.91 9.97 25.09 9.08 24.95 8.2C24.81 7.33 24.36 6.54 23.68 5.96C23.01 5.39 22.15 5.07 21.26 5.06ZM18.99 21.38C18.96 21.69 18.82 21.98 18.58 22.18C18.35 22.39 18.05 22.5 17.74 22.5L7.23 22.5C6.91 22.5 6.61 22.39 6.38 22.18C6.15 21.98 6 21.69 5.97 21.38L5.08 12.54L19.88 12.54L18.99 21.38ZM21.26 10.04L3.7 10.04C3.37 10.04 3.05 9.91 2.81 9.68C2.58 9.45 2.45 9.13 2.45 8.8C2.45 8.47 2.58 8.15 2.81 7.92C3.05 7.68 3.37 7.55 3.7 7.55L21.26 7.55C21.6 7.55 21.92 7.68 22.15 7.92C22.39 8.15 22.52 8.47 22.52 8.8C22.52 9.13 22.39 9.45 22.15 9.68C21.92 9.91 21.6 10.04 21.26 10.04Z" fill="#535353" fill-opacity="1.000000" fill-rule="nonzero"/>
</svg>
