<svg width="20.000000" height="20.000000" viewBox="0 0 20 20" fill="none" xmlns="http://www.w3.org/2000/svg" xmlns:xlink="http://www.w3.org/1999/xlink">
	<desc>
			Created with Pixso.
	</desc>
	<defs/>
	<path id="Vector" d="M13.87 1.47L18.99 1.47C19.55 1.47 19.99 1.92 19.99 2.47L19.99 7.59C19.99 8.15 19.55 8.59 18.99 8.59L13.87 8.59C13.32 8.59 12.87 8.15 12.87 7.59L12.87 2.47C12.87 1.92 13.32 1.47 13.87 1.47Z" fill="#FFFFFF" fill-opacity="1.000000" fill-rule="evenodd"/>
	<path id="Vector" d="M5.74 0.7L9.36 4.32C9.75 4.71 9.75 5.35 9.36 5.74L5.74 9.36C5.35 9.75 4.72 9.75 4.32 9.36L0.7 5.74C0.31 5.35 0.31 4.71 0.7 4.32L4.32 0.7C4.72 0.31 5.35 0.31 5.74 0.7Z" fill="#FFFFFF" fill-opacity="1.000000" fill-rule="evenodd"/>
	<path id="Vector" d="M2.47 12.87L7.59 12.87C8.15 12.87 8.59 13.32 8.59 13.87L8.59 19C8.59 19.55 8.15 20 7.59 20L2.47 20C1.92 20 1.47 19.55 1.47 19L1.47 13.87C1.47 13.32 1.92 12.87 2.47 12.87Z" fill="#FFFFFF" fill-opacity="1.000000" fill-rule="evenodd"/>
	<path id="Vector" d="M13.87 12.87L18.99 12.87C19.55 12.87 19.99 13.32 19.99 13.87L19.99 19C19.99 19.55 19.55 20 18.99 20L13.87 20C13.32 20 12.87 19.55 12.87 19L12.87 13.87C12.87 13.32 13.32 12.87 13.87 12.87Z" fill="#FFFFFF" fill-opacity="1.000000" fill-rule="evenodd"/>
</svg>
