<svg width="26.000000" height="23.000000" viewBox="0 0 26 23" fill="none" xmlns="http://www.w3.org/2000/svg" xmlns:xlink="http://www.w3.org/1999/xlink">
	<desc>
			Created with Pixso.
	</desc>
	<defs/>
	<path id="Vector" d="M23.56 2.43C22.18 1.05 20.36 0.21 18.42 0.06C16.48 -0.09 14.55 0.45 12.98 1.6C11.33 0.37 9.27 -0.18 7.23 0.04C5.19 0.27 3.3 1.26 1.96 2.82C0.62 4.38 -0.08 6.39 0 8.44C0.08 10.5 0.94 12.45 2.4 13.89L10.45 21.96C11.12 22.62 12.03 23 12.98 23C13.92 23 14.83 22.62 15.51 21.96L23.56 13.89C25.07 12.37 25.92 10.31 25.92 8.16C25.92 6.02 25.07 3.95 23.56 2.43ZM21.73 12.1L13.68 20.16C13.59 20.25 13.48 20.32 13.36 20.37C13.24 20.42 13.11 20.45 12.98 20.45C12.85 20.45 12.72 20.42 12.6 20.37C12.48 20.32 12.37 20.25 12.28 20.16L4.22 12.07C3.21 11.03 2.64 9.63 2.64 8.18C2.64 6.72 3.21 5.33 4.22 4.29C5.26 3.26 6.66 2.69 8.11 2.69C9.57 2.69 10.97 3.26 12 4.29C12.13 4.41 12.27 4.5 12.43 4.57C12.58 4.64 12.75 4.67 12.93 4.67C13.1 4.67 13.27 4.64 13.42 4.57C13.58 4.5 13.73 4.41 13.85 4.29C14.88 3.26 16.28 2.69 17.74 2.69C19.19 2.69 20.59 3.26 21.63 4.29C22.66 5.31 23.25 6.7 23.26 8.15C23.28 9.61 22.73 11.01 21.73 12.07L21.73 12.1Z" fill="#535353" fill-opacity="1.000000" fill-rule="nonzero"/>
</svg>
